<svg xmlns="http://www.w3.org/2000/svg" viewBox="0 0 24 24">
  <path d="M12 0C7.582031 0 4 3.582031 4 8C4 12.417969 7.582031 16 12 16C16.417969 16 20 12.417969 20 8C20 3.582031 16.417969 0 12 0 Z M 6.65625 10.65625L17.34375 10.65625C16.359375 12.625 14.351563 14 12 14C9.648438 14 7.640625 12.625 6.65625 10.65625 Z M 7.375 17.375C4.398438 18.15625 2.070313 20.015625 1 24L23 24C21.929688 20.015625 19.601563 18.15625 16.625 17.375C15.246094 18.113281 13.671875 18.53125 12 18.53125C10.328125 18.53125 8.753906 18.113281 7.375 17.375Z" fill="#656565" />
</svg>